<?xml version="1.0" encoding="UTF-8"?>
<svg xmlns="http://www.w3.org/2000/svg" xmlns:xlink="http://www.w3.org/1999/xlink" width="50px" height="50px" viewBox="0 0 50 50" version="1.1">
<g id="surface1">
<path style=" stroke:none;fill-rule:nonzero;fill:rgb(61.568627%,52.156863%,40.392157%);fill-opacity:1;" d="M 1.90625 0.175781 C 1.5625 0.28125 1.25 0.5 0.867188 0.878906 C -0.0585938 1.804688 -0.0078125 1.296875 0.0195312 10.109375 L 0.046875 17.726562 L 0.3125 18.210938 C 0.644531 18.835938 1.09375 19.265625 1.710938 19.550781 C 2.195312 19.773438 2.226562 19.773438 6.828125 19.804688 L 11.453125 19.835938 L 13.457031 21.386719 C 15.460938 22.960938 15.683594 23.078125 16.113281 22.851562 C 16.398438 22.695312 16.503906 22.207031 16.503906 20.984375 L 16.503906 19.824219 L 18.289062 19.824219 C 19.265625 19.824219 20.234375 19.796875 20.4375 19.765625 L 20.800781 19.695312 L 20.800781 29.785156 L 11.59375 29.785156 C 1.035156 29.785156 1.699219 29.734375 0.820312 30.605469 C 0.03125 31.398438 0 31.582031 0 35.117188 C 0 37.851562 0.0078125 38.078125 0.1875 38.289062 C 0.4375 38.601562 1.023438 38.601562 1.28125 38.289062 C 1.453125 38.078125 1.464844 37.851562 1.464844 35.117188 C 1.464844 32.34375 1.476562 32.15625 1.660156 31.855469 C 2.050781 31.21875 1.5625 31.25 12.109375 31.25 C 22.546875 31.25 22 31.21875 22.453125 31.796875 C 22.65625 32.050781 22.65625 32.117188 22.65625 38.339844 L 22.65625 44.628906 L 1.464844 44.628906 L 1.464844 42.832031 C 1.464844 41.171875 1.453125 41.023438 1.257812 40.78125 C 0.984375 40.429688 0.476562 40.429688 0.203125 40.78125 C 0.0078125 41.035156 0 41.152344 0 44.335938 C 0 48.242188 0.0195312 48.378906 0.820312 49.179688 C 1.726562 50.078125 -0.761719 50 25.945312 50 L 49.523438 50 L 49.757812 49.757812 L 50 49.523438 L 50 46.308594 C 50 43.203125 49.992188 43.085938 49.796875 42.832031 C 49.523438 42.480469 49.015625 42.480469 48.742188 42.832031 C 48.546875 43.085938 48.535156 43.210938 48.535156 45.8125 L 48.535156 48.535156 L 43.457031 48.535156 L 43.457031 46.777344 C 43.457031 45.148438 43.445312 45.007812 43.261719 44.824219 C 43 44.5625 42.46875 44.570312 42.226562 44.835938 C 42.0625 45.019531 42.039062 45.234375 42.011719 46.789062 L 41.984375 48.535156 L 33.914062 48.535156 C 26.28125 48.535156 25.859375 48.523438 25.929688 48.359375 C 26.085938 47.960938 26.191406 46.867188 26.152344 45.984375 C 26.101562 44.726562 26.035156 44.648438 24.960938 44.609375 L 24.171875 44.578125 L 24.121094 38.132812 C 24.09375 34.589844 24.042969 31.640625 24.003906 31.582031 C 23.9375 31.476562 24.84375 31.152344 25.214844 31.152344 C 25.320312 31.152344 25.664062 31.953125 26.414062 33.953125 C 27.585938 37.078125 27.714844 37.363281 28.046875 37.65625 C 28.886719 38.429688 30.28125 38.398438 31.015625 37.578125 C 31.132812 37.460938 31.515625 36.789062 31.867188 36.085938 L 32.492188 34.824219 L 33.195312 36.203125 C 33.953125 37.703125 34.210938 37.96875 35.078125 38.183594 C 35.710938 38.339844 36.453125 38.125 36.945312 37.636719 C 37.324219 37.257812 37.402344 37.078125 38.953125 32.949219 L 39.667969 31.085938 L 42.101562 31.75 C 45.136719 32.558594 45.585938 32.765625 46.679688 33.875 C 48.066406 35.273438 48.535156 36.542969 48.535156 38.867188 C 48.535156 39.523438 48.574219 40.125 48.632812 40.226562 C 48.679688 40.320312 48.847656 40.460938 49.015625 40.515625 C 49.382812 40.671875 49.875 40.449219 49.960938 40.078125 C 50.078125 39.628906 49.921875 36.90625 49.757812 36.28125 C 49.054688 33.75 47.117188 31.710938 44.65625 30.90625 L 44.140625 30.742188 L 44.140625 19.53125 L 44.472656 19.070312 C 44.992188 18.328125 45.019531 18.132812 45.019531 15.78125 C 45.019531 13.71875 45.007812 13.601562 44.785156 13.132812 C 44.667969 12.859375 44.355469 12.460938 44.109375 12.226562 L 43.652344 11.816406 L 43.652344 9.335938 C 43.652344 7.179688 43.632812 6.777344 43.46875 6.257812 C 42.960938 4.609375 41.445312 3.300781 39.746094 3.039062 C 39.394531 2.976562 38.945312 2.929688 38.75 2.929688 C 38.40625 2.929688 38.390625 2.910156 38.242188 2.460938 C 38.046875 1.882812 37.480469 1.132812 36.933594 0.710938 C 36.699219 0.539062 36.203125 0.304688 35.828125 0.1875 C 35.1875 -0.0078125 35 -0.0195312 32.734375 0.03125 C 30.136719 0.0859375 29.65625 0.15625 28.234375 0.671875 C 26.257812 1.398438 24.453125 2.78125 23.234375 4.523438 L 22.753906 5.203125 L 22.753906 3.78125 C 22.753906 1.972656 22.617188 1.515625 21.816406 0.789062 C 20.917969 -0.03125 21.21875 0 13.769531 0 C 7.324219 0 7.246094 0 6.992188 0.203125 C 6.804688 0.351562 6.738281 0.5 6.738281 0.734375 C 6.738281 0.96875 6.804688 1.113281 6.992188 1.257812 C 7.246094 1.464844 7.324219 1.464844 13.710938 1.464844 C 20.90625 1.464844 20.59375 1.4375 21.0625 2.140625 L 21.289062 2.46875 L 21.289062 11.882812 L 20.898438 12.195312 C 20.683594 12.375 20.382812 12.742188 20.234375 13.015625 L 19.96875 13.523438 L 19.96875 18.359375 L 17.714844 18.359375 C 15.929688 18.359375 15.429688 18.390625 15.273438 18.496094 C 15.117188 18.613281 15.078125 18.789062 15.039062 19.679688 L 14.992188 20.722656 L 13.476562 19.550781 L 11.960938 18.367188 L 7.179688 18.339844 L 2.390625 18.3125 L 2.0625 18.078125 C 1.445312 17.636719 1.464844 17.921875 1.464844 9.890625 C 1.464844 3.132812 1.476562 2.558594 1.640625 2.257812 C 1.945312 1.648438 2.226562 1.523438 3.367188 1.464844 C 4.539062 1.40625 4.726562 1.308594 4.726562 0.722656 C 4.726562 0.136719 4.460938 0 3.328125 0.0078125 C 2.734375 0.0078125 2.21875 0.0703125 1.90625 0.175781 Z M 35.703125 1.699219 C 36.25 1.953125 36.660156 2.421875 36.875 3 C 36.972656 3.28125 37 4.210938 37.011719 6.894531 L 37.011719 10.421875 L 36.203125 11.203125 C 34.914062 12.429688 34.914062 12.441406 31.835938 12.507812 C 29.65625 12.570312 29.121094 12.609375 28.46875 12.78125 C 27.703125 12.976562 26.257812 13.632812 25.617188 14.0625 L 25.292969 14.277344 L 25.292969 13.105469 C 25.292969 11.953125 25.292969 11.921875 25.039062 11.726562 C 24.8125 11.554688 24.640625 11.523438 23.75 11.523438 L 22.726562 11.523438 L 22.78125 10.371094 C 22.929688 7.753906 23.808594 5.761719 25.59375 4.042969 C 26.425781 3.25 26.921875 2.890625 27.882812 2.421875 C 29.414062 1.648438 30.351562 1.484375 33.105469 1.476562 C 35.117188 1.464844 35.226562 1.476562 35.703125 1.699219 Z M 39.773438 4.539062 C 40.722656 4.785156 41.425781 5.359375 41.914062 6.28125 C 42.128906 6.671875 42.140625 6.816406 42.167969 9.101562 L 42.195312 11.503906 L 41.125 11.542969 C 39.890625 11.570312 39.746094 11.648438 39.65625 12.3125 L 39.601562 12.714844 L 39.042969 11.640625 L 38.476562 10.578125 L 38.476562 4.394531 L 38.847656 4.394531 C 39.054688 4.394531 39.460938 4.460938 39.773438 4.539062 Z M 39.617188 17.675781 C 39.578125 19.472656 39.492188 19.980469 39.023438 21.035156 L 38.78125 21.582031 L 36.25 21.582031 C 34.09375 21.582031 33.703125 21.5625 33.652344 21.4375 C 33.554688 21.171875 32.976562 20.898438 32.519531 20.898438 C 31.386719 20.898438 30.683594 22.101562 31.257812 23.046875 C 31.523438 23.476562 31.6875 23.601562 32.167969 23.742188 C 32.625 23.867188 33.234375 23.671875 33.59375 23.289062 C 33.820312 23.046875 33.828125 23.046875 35.734375 23.046875 L 37.648438 23.054688 L 37.117188 23.535156 C 36.164062 24.414062 34.5625 25.085938 33.046875 25.242188 C 31.191406 25.4375 28.9375 24.609375 27.519531 23.210938 C 25.9375 21.648438 25.304688 19.890625 25.292969 17.078125 L 25.292969 16.230469 L 25.664062 15.898438 C 26.53125 15.109375 27.703125 14.484375 28.835938 14.199219 C 29.265625 14.09375 30.203125 14.023438 32.03125 13.976562 C 34.335938 13.914062 34.679688 13.875 35.136719 13.703125 C 35.851562 13.40625 36.484375 12.988281 37.050781 12.414062 L 37.539062 11.914062 L 38.59375 13.945312 L 39.648438 15.96875 Z M 23.828125 15.820312 L 23.828125 18.652344 L 23.125 18.652344 C 22.257812 18.652344 21.796875 18.457031 21.5625 17.96875 C 21.308594 17.460938 21.308594 14.171875 21.5625 13.679688 C 21.804688 13.195312 22.265625 12.988281 23.117188 12.988281 L 23.828125 12.988281 Z M 42.8125 13.125 C 42.988281 13.195312 43.222656 13.378906 43.339844 13.523438 C 43.546875 13.78125 43.554688 13.886719 43.554688 15.820312 C 43.554688 17.726562 43.546875 17.859375 43.351562 18.105469 C 43.027344 18.515625 42.664062 18.652344 41.84375 18.652344 L 41.113281 18.652344 L 41.113281 12.988281 L 41.796875 12.988281 C 42.179688 12.988281 42.625 13.046875 42.8125 13.125 Z M 24.226562 20.527344 C 24.414062 21.242188 25.070312 22.546875 25.59375 23.25 C 26.171875 24.03125 26.992188 24.804688 27.773438 25.292969 L 28.3125 25.632812 L 28.320312 27.207031 L 28.320312 28.78125 L 25.632812 29.492188 C 22.96875 30.203125 22.9375 30.203125 22.609375 30.046875 L 22.265625 29.882812 L 22.265625 20.117188 L 24.109375 20.117188 Z M 42.675781 25.253906 C 42.675781 30.097656 42.664062 30.382812 42.507812 30.332031 C 42.078125 30.203125 36.828125 28.808594 36.777344 28.808594 C 36.75 28.808594 36.71875 28.09375 36.71875 27.21875 L 36.726562 25.632812 L 37.3125 25.242188 C 37.648438 25.03125 38.289062 24.453125 38.75 23.964844 C 39.316406 23.378906 39.71875 23.039062 39.953125 22.960938 C 40.351562 22.832031 40.859375 22.34375 41.007812 21.945312 C 41.0625 21.789062 41.113281 21.320312 41.113281 20.890625 L 41.113281 20.117188 L 42.675781 20.117188 Z M 32.421875 26.679688 C 33.242188 26.6875 33.859375 26.640625 34.304688 26.53125 C 35.371094 26.269531 35.273438 26.09375 35.234375 28.289062 C 35.203125 30.058594 35.1875 30.265625 34.980469 30.710938 C 34.523438 31.710938 33.757812 32.234375 32.664062 32.304688 C 32.0625 32.34375 31.875 32.3125 31.4375 32.109375 C 30.820312 31.828125 30.351562 31.398438 30.046875 30.820312 C 29.851562 30.449219 29.835938 30.265625 29.804688 28.351562 L 29.773438 26.289062 L 30.488281 26.484375 C 31.015625 26.621094 31.523438 26.679688 32.421875 26.679688 Z M 28.546875 30.96875 C 28.867188 32.011719 29.796875 33.015625 30.890625 33.484375 C 31.140625 33.59375 31.347656 33.703125 31.347656 33.71875 C 31.347656 33.742188 31.035156 34.40625 30.664062 35.195312 C 29.921875 36.757812 29.734375 36.945312 29.226562 36.699219 C 29.015625 36.59375 28.808594 36.140625 27.871094 33.652344 C 27.257812 32.039062 26.765625 30.710938 26.789062 30.710938 C 26.894531 30.625 28.28125 30.3125 28.328125 30.359375 C 28.359375 30.390625 28.457031 30.664062 28.546875 30.96875 Z M 37.570312 30.527344 C 37.898438 30.617188 38.183594 30.722656 38.183594 30.773438 C 38.183594 30.820312 37.714844 32.101562 37.148438 33.613281 C 36.132812 36.320312 35.867188 36.816406 35.5 36.816406 C 35.203125 36.816406 34.863281 36.328125 34.25 35.039062 L 33.613281 33.703125 L 34.226562 33.40625 C 35.320312 32.898438 36.140625 31.960938 36.492188 30.828125 C 36.609375 30.421875 36.699219 30.28125 36.804688 30.320312 C 36.882812 30.351562 37.226562 30.449219 37.570312 30.527344 Z M 24.6875 46.855469 C 24.65625 47.363281 24.578125 47.726562 24.460938 47.929688 C 24.082031 48.574219 24.734375 48.535156 13.039062 48.535156 C 1.328125 48.535156 2.050781 48.574219 1.660156 47.921875 C 1.515625 47.6875 1.464844 47.429688 1.464844 46.84375 L 1.464844 46.09375 L 24.734375 46.09375 Z M 24.6875 46.855469 "/>
<path style=" stroke:none;fill-rule:nonzero;fill:rgb(61.568627%,52.156863%,40.392157%);fill-opacity:1;" d="M 10.304688 3.367188 C 8.964844 3.625 7.929688 4.132812 6.960938 5.019531 C 4.09375 7.648438 4.082031 12.140625 6.933594 14.785156 C 8.171875 15.929688 9.695312 16.523438 11.425781 16.515625 C 12.65625 16.515625 13.320312 16.359375 14.453125 15.800781 C 15.625 15.226562 16.789062 14.0625 17.351562 12.890625 C 17.910156 11.75 18.105469 10.78125 18.039062 9.53125 C 17.949219 7.859375 17.402344 6.609375 16.25 5.382812 C 15.15625 4.21875 13.867188 3.546875 12.335938 3.320312 C 11.492188 3.203125 11.152344 3.210938 10.304688 3.367188 Z M 13.046875 4.992188 C 15.097656 5.625 16.601562 7.695312 16.601562 9.890625 C 16.601562 12.257812 14.921875 14.382812 12.648438 14.941406 C 10.34375 15.488281 7.8125 14.296875 6.796875 12.1875 C 6.074219 10.664062 6.0625 9.179688 6.796875 7.65625 C 7.898438 5.320312 10.515625 4.210938 13.046875 4.992188 Z M 13.046875 4.992188 "/>
<path style=" stroke:none;fill-rule:nonzero;fill:rgb(61.568627%,52.156863%,40.392157%);fill-opacity:1;" d="M 8.742188 7.53125 C 8.398438 7.726562 8.203125 8.046875 8.203125 8.429688 C 8.203125 9.414062 9.5625 9.757812 10.007812 8.886719 C 10.226562 8.46875 10.1875 8.144531 9.890625 7.8125 C 9.589844 7.480469 9.054688 7.34375 8.742188 7.53125 Z M 8.742188 7.53125 "/>
<path style=" stroke:none;fill-rule:nonzero;fill:rgb(61.568627%,52.156863%,40.392157%);fill-opacity:1;" d="M 13.328125 7.507812 C 12.859375 7.703125 12.625 8.234375 12.792969 8.730469 C 13.117188 9.726562 14.648438 9.492188 14.648438 8.445312 C 14.648438 7.988281 14.523438 7.753906 14.160156 7.570312 C 13.847656 7.414062 13.625 7.390625 13.328125 7.507812 Z M 13.328125 7.507812 "/>
<path style=" stroke:none;fill-rule:nonzero;fill:rgb(61.568627%,52.156863%,40.392157%);fill-opacity:1;" d="M 8.71875 11.25 C 8.429688 11.386719 8.273438 11.816406 8.390625 12.128906 C 8.4375 12.265625 8.652344 12.507812 8.867188 12.6875 C 10.234375 13.769531 12.167969 13.875 13.625 12.9375 C 14.316406 12.5 14.578125 12.148438 14.511719 11.765625 C 14.433594 11.398438 14.289062 11.25 13.914062 11.179688 C 13.679688 11.132812 13.523438 11.191406 13.105469 11.515625 C 12.023438 12.335938 10.761719 12.3125 9.679688 11.476562 C 9.21875 11.113281 9.070312 11.085938 8.71875 11.25 Z M 8.71875 11.25 "/>
<path style=" stroke:none;fill-rule:nonzero;fill:rgb(61.568627%,52.156863%,40.392157%);fill-opacity:1;" d="M 11.164062 35.382812 C 9.796875 35.90625 9.070312 37.402344 9.523438 38.78125 C 9.765625 39.492188 10.507812 40.234375 11.21875 40.476562 C 12.492188 40.898438 13.925781 40.292969 14.5 39.101562 C 14.726562 38.632812 14.804688 37.6875 14.65625 37.140625 C 14.511719 36.582031 14.003906 35.957031 13.445312 35.605469 C 13.054688 35.359375 12.859375 35.3125 12.226562 35.28125 C 11.789062 35.273438 11.347656 35.304688 11.164062 35.382812 Z M 12.695312 36.867188 C 13.054688 37.050781 13.28125 37.480469 13.28125 37.988281 C 13.28125 38.300781 13.210938 38.457031 12.960938 38.730469 C 12.15625 39.609375 10.75 38.984375 10.867188 37.792969 C 10.96875 36.933594 11.894531 36.453125 12.695312 36.867188 Z M 12.695312 36.867188 "/>
</g>
</svg>
