<?xml version="1.0" encoding="UTF-8"?>
<svg xmlns="http://www.w3.org/2000/svg" xmlns:xlink="http://www.w3.org/1999/xlink" width="50px" height="50px" viewBox="0 0 50 50" version="1.1">
<g id="surface1">
<path style=" stroke:none;fill-rule:nonzero;fill:rgb(61.568627%,52.156863%,40.392157%);fill-opacity:1;" d="M 44.1875 2.167969 C 43.992188 2.34375 43.875 2.648438 43.652344 3.484375 C 43.496094 4.082031 43.273438 4.765625 43.15625 5 C 42.636719 6.046875 41.710938 6.921875 40.507812 7.53125 C 39.921875 7.820312 39.648438 8.171875 39.648438 8.632812 C 39.648438 9.121094 39.851562 9.34375 40.664062 9.785156 C 41.640625 10.304688 42.695312 11.328125 43.105469 12.128906 C 43.25 12.441406 43.507812 13.164062 43.664062 13.742188 C 43.992188 14.980469 44.21875 15.28125 44.824219 15.28125 C 45.4375 15.28125 45.65625 14.992188 45.996094 13.679688 C 46.152344 13.078125 46.40625 12.351562 46.554688 12.078125 C 46.953125 11.335938 48.066406 10.265625 48.875 9.84375 C 49.695312 9.414062 49.890625 9.21875 49.960938 8.769531 C 50.046875 8.222656 49.8125 7.890625 49.042969 7.492188 C 48.117188 7 47.429688 6.4375 46.933594 5.722656 C 46.425781 5.007812 46.25 4.617188 45.984375 3.574219 C 45.878906 3.132812 45.742188 2.664062 45.695312 2.519531 C 45.46875 1.953125 44.65625 1.765625 44.1875 2.167969 Z M 45.265625 5.789062 C 45.566406 6.40625 45.828125 6.765625 46.4375 7.375 C 46.867188 7.804688 47.382812 8.242188 47.585938 8.351562 C 47.78125 8.457031 47.949219 8.574219 47.949219 8.601562 C 47.949219 8.640625 47.78125 8.78125 47.585938 8.898438 C 46.660156 9.460938 45.449219 10.867188 45.019531 11.875 L 44.824219 12.324219 L 44.433594 11.542969 C 43.984375 10.65625 43.066406 9.601562 42.246094 9.03125 C 41.945312 8.828125 41.699219 8.632812 41.699219 8.59375 C 41.699219 8.5625 41.835938 8.457031 42 8.359375 C 43.007812 7.765625 44.21875 6.386719 44.589844 5.410156 C 44.679688 5.175781 44.773438 4.980469 44.8125 4.992188 C 44.84375 4.992188 45.046875 5.351562 45.265625 5.789062 Z M 45.265625 5.789062 "/>
<path style=" stroke:none;fill-rule:nonzero;fill:rgb(61.568627%,52.156863%,40.392157%);fill-opacity:1;" d="M 23.144531 6.933594 C 20.78125 7.179688 17.265625 8.183594 16.992188 8.691406 C 16.738281 9.171875 17.039062 9.765625 17.53125 9.765625 C 17.664062 9.765625 18.359375 9.570312 19.070312 9.328125 C 20.136719 8.964844 22.011719 8.496094 22.375 8.496094 C 22.421875 8.496094 22.207031 8.71875 21.90625 8.992188 C 21.140625 9.65625 20.4375 10.410156 19.550781 11.523438 C 16.582031 15.203125 14.890625 19.785156 14.523438 25.195312 L 14.5 25.539062 L 10.75 25.566406 L 7 25.585938 L 7.070312 24.734375 C 7.304688 21.855469 8.367188 18.808594 10 16.359375 C 11.230469 14.523438 12.507812 13.171875 14.40625 11.75 C 15.203125 11.140625 15.28125 11.046875 15.3125 10.722656 C 15.351562 10.28125 15.078125 9.960938 14.667969 9.960938 C 14.160156 9.960938 12.265625 11.445312 10.800781 13 C 8.242188 15.710938 6.554688 19.0625 5.828125 22.851562 C 5.65625 23.796875 5.617188 24.328125 5.617188 26.21875 C 5.617188 28.5625 5.664062 29.0625 6.125 30.957031 C 6.933594 34.375 8.925781 37.792969 11.523438 40.273438 C 17.492188 45.945312 26.132812 47.296875 33.46875 43.703125 C 39.296875 40.839844 43.289062 35.34375 44.179688 28.914062 C 44.265625 28.300781 44.335938 27.148438 44.335938 26.269531 C 44.335938 25.390625 44.265625 24.238281 44.179688 23.625 C 43 15.125 36.328125 8.367188 27.871094 7.078125 C 26.660156 6.894531 24.238281 6.816406 23.144531 6.933594 Z M 29.054688 8.808594 C 30.828125 9.210938 33 10.117188 34.53125 11.09375 C 38.429688 13.574219 41.230469 17.441406 42.382812 21.953125 C 42.609375 22.859375 42.871094 24.539062 42.871094 25.175781 L 42.871094 25.585938 L 39.140625 25.566406 L 35.398438 25.539062 L 35.332031 24.5625 C 34.992188 19.71875 33.203125 15.078125 30.273438 11.375 C 29.929688 10.945312 29.171875 10.125 28.585938 9.539062 C 27.375 8.359375 27.335938 8.429688 29.054688 8.808594 Z M 24.21875 17.285156 L 24.21875 25.585938 L 15.984375 25.585938 L 16.054688 24.550781 C 16.328125 20.34375 17.960938 15.957031 20.5 12.648438 C 21.113281 11.84375 22.453125 10.460938 23.390625 9.648438 C 23.820312 9.289062 24.179688 8.984375 24.199219 8.984375 C 24.210938 8.984375 24.21875 12.714844 24.21875 17.285156 Z M 28.007812 11.085938 C 31.171875 14.367188 33.09375 18.496094 33.742188 23.367188 C 33.820312 24.003906 33.886719 24.765625 33.886719 25.058594 L 33.886719 25.585938 L 32.726562 25.585938 C 31.582031 25.585938 31.554688 25.59375 31.359375 25.839844 C 31.125 26.140625 31.101562 26.257812 31.257812 26.601562 C 31.414062 26.945312 31.816406 27.050781 32.921875 27.050781 L 33.886719 27.050781 L 33.886719 27.558594 C 33.886719 28.40625 33.789062 28.820312 33.554688 28.90625 C 33.195312 29.042969 33.039062 29.328125 32.773438 30.320312 C 32.625 30.859375 32.375 31.582031 32.207031 31.933594 C 31.804688 32.753906 30.75 33.820312 29.882812 34.265625 C 29.070312 34.6875 28.828125 34.914062 28.75 35.320312 C 28.640625 35.898438 28.835938 36.171875 29.765625 36.6875 C 30.75 37.234375 31.75 38.171875 32.15625 38.9375 C 32.304688 39.210938 32.546875 39.914062 32.703125 40.5 C 33 41.621094 33.144531 41.992188 33.300781 41.992188 C 33.75 41.992188 32.597656 42.578125 30.957031 43.203125 C 30.34375 43.429688 28.652344 43.867188 27.898438 43.992188 C 27.53125 44.054688 27.53125 44.054688 28.640625 42.949219 C 30.488281 41.125 30.800781 40.605469 30.410156 40.058594 C 30.304688 39.902344 30.164062 39.84375 29.890625 39.84375 C 29.539062 39.84375 29.460938 39.902344 28.59375 40.898438 C 27.832031 41.757812 26.789062 42.734375 25.859375 43.445312 C 25.695312 43.574219 25.683594 43.171875 25.683594 35.3125 L 25.683594 27.050781 L 26.992188 27.050781 C 28.351562 27.050781 28.847656 26.953125 29.003906 26.660156 C 29.160156 26.367188 29.121094 25.996094 28.90625 25.78125 C 28.730469 25.605469 28.585938 25.585938 27.195312 25.585938 L 25.683594 25.585938 L 25.683594 8.976562 L 26.28125 9.445312 C 26.601562 9.695312 27.382812 10.4375 28.007812 11.085938 Z M 14.589844 28.046875 C 14.914062 33.007812 16.804688 37.773438 19.941406 41.542969 C 20.421875 42.101562 21.152344 42.882812 21.582031 43.273438 C 22.011719 43.664062 22.34375 43.992188 22.324219 44.015625 C 22.304688 44.03125 21.855469 43.964844 21.328125 43.859375 C 14.34375 42.429688 8.769531 36.828125 7.375 29.84375 C 7.246094 29.1875 7.109375 28.300781 7.070312 27.851562 L 7 27.050781 L 14.523438 27.050781 Z M 24.21875 35.3125 L 24.21875 43.5625 L 24.003906 43.417969 C 23.328125 42.9375 22.023438 41.710938 21.230469 40.78125 C 18.484375 37.597656 16.75 33.613281 16.164062 29.171875 C 16.085938 28.535156 16.015625 27.804688 16.015625 27.53125 L 16.015625 27.050781 L 24.21875 27.050781 Z M 42.871094 27.460938 C 42.871094 28.632812 42.273438 31.320312 41.6875 32.792969 C 40.742188 35.164062 39.1875 37.492188 37.414062 39.1875 C 36.464844 40.085938 35.085938 41.171875 35 41.085938 C 34.921875 41.007812 35.320312 39.609375 35.554688 39.132812 C 36.074219 38.105469 36.992188 37.21875 38.144531 36.640625 C 38.859375 36.28125 38.964844 36.164062 39.03125 35.644531 C 39.109375 35.097656 38.925781 34.796875 38.328125 34.5 C 37.726562 34.199219 36.757812 33.515625 36.40625 33.144531 C 35.996094 32.695312 35.460938 31.75 35.253906 31.0625 C 35.070312 30.476562 35.070312 30.390625 35.203125 29.265625 C 35.28125 28.613281 35.351562 27.851562 35.351562 27.570312 L 35.351562 27.050781 L 42.871094 27.050781 Z M 35.226562 33.984375 C 35.527344 34.316406 36.074219 34.796875 36.4375 35.046875 L 37.101562 35.515625 L 36.601562 35.839844 C 35.554688 36.523438 34.472656 37.8125 34.082031 38.847656 L 33.925781 39.265625 L 33.523438 38.457031 C 33.054688 37.507812 32.273438 36.609375 31.386719 35.976562 C 31.046875 35.734375 30.761719 35.515625 30.761719 35.507812 C 30.761719 35.488281 31.007812 35.3125 31.296875 35.109375 C 32.140625 34.53125 33.125 33.417969 33.546875 32.570312 L 33.90625 31.828125 L 34.296875 32.609375 C 34.5 33.027344 34.929688 33.652344 35.226562 33.984375 Z M 35.226562 33.984375 "/>
<path style=" stroke:none;fill-rule:nonzero;fill:rgb(61.568627%,52.156863%,40.392157%);fill-opacity:1;" d="M 2.960938 11.621094 C 2.742188 11.75 2.617188 11.921875 2.546875 12.179688 C 2.5 12.382812 2.414062 12.726562 2.351562 12.9375 C 2.179688 13.625 1.71875 14.226562 1.054688 14.640625 C 0.265625 15.136719 0.117188 15.273438 0.0390625 15.585938 C -0.0585938 15.96875 0.109375 16.328125 0.46875 16.554688 C 1.6875 17.296875 2.140625 17.832031 2.421875 18.90625 C 2.570312 19.445312 2.703125 19.746094 2.882812 19.890625 C 3.398438 20.351562 4.109375 20.046875 4.296875 19.304688 C 4.648438 17.9375 5.078125 17.3125 6.023438 16.777344 C 6.640625 16.425781 6.835938 16.179688 6.835938 15.742188 C 6.835938 15.371094 6.660156 15.1875 5.78125 14.640625 C 5.136719 14.238281 4.65625 13.632812 4.492188 12.988281 C 4.445312 12.804688 4.355469 12.460938 4.296875 12.226562 C 4.1875 11.804688 3.769531 11.425781 3.417969 11.425781 C 3.339844 11.425781 3.132812 11.515625 2.960938 11.621094 Z M 3.742188 14.734375 C 3.875 14.941406 4.171875 15.265625 4.382812 15.4375 L 4.773438 15.773438 L 4.210938 16.359375 C 3.898438 16.679688 3.59375 17.03125 3.535156 17.140625 L 3.417969 17.335938 L 3.300781 17.140625 C 3.242188 17.03125 2.9375 16.679688 2.625 16.359375 L 2.0625 15.773438 L 2.453125 15.4375 C 2.664062 15.265625 2.960938 14.941406 3.09375 14.734375 C 3.234375 14.53125 3.378906 14.355469 3.417969 14.355469 C 3.457031 14.355469 3.601562 14.53125 3.742188 14.734375 Z M 3.742188 14.734375 "/>
<path style=" stroke:none;fill-rule:nonzero;fill:rgb(61.568627%,52.156863%,40.392157%);fill-opacity:1;" d="M 41.640625 39.492188 C 41.257812 39.65625 41.21875 39.71875 41.015625 40.539062 C 40.710938 41.699219 40.214844 42.324219 39.148438 42.871094 C 38.625 43.144531 38.417969 43.769531 38.71875 44.210938 C 38.796875 44.316406 39.09375 44.539062 39.382812 44.707031 C 40.292969 45.214844 40.800781 45.929688 41.035156 47.023438 C 41.230469 47.929688 41.960938 48.320312 42.53125 47.820312 C 42.703125 47.675781 42.84375 47.375 42.988281 46.835938 C 43.273438 45.761719 43.71875 45.226562 44.941406 44.484375 C 45.605469 44.070312 45.527344 43.222656 44.785156 42.851562 C 43.757812 42.335938 43.289062 41.71875 42.949219 40.476562 C 42.742188 39.734375 42.609375 39.550781 42.140625 39.421875 C 42.03125 39.382812 41.804688 39.421875 41.640625 39.492188 Z M 42.3125 42.664062 C 42.453125 42.871094 42.742188 43.195312 42.960938 43.367188 L 43.351562 43.703125 L 42.78125 44.289062 C 42.46875 44.609375 42.167969 44.960938 42.109375 45.070312 L 41.992188 45.265625 L 41.875 45.070312 C 41.816406 44.960938 41.515625 44.609375 41.203125 44.289062 L 40.632812 43.703125 L 41.023438 43.367188 C 41.242188 43.195312 41.53125 42.871094 41.671875 42.664062 C 41.804688 42.460938 41.953125 42.285156 41.992188 42.285156 C 42.03125 42.285156 42.179688 42.460938 42.3125 42.664062 Z M 42.3125 42.664062 "/>
</g>
</svg>
