<?xml version="1.0" encoding="UTF-8"?>
<svg xmlns="http://www.w3.org/2000/svg" xmlns:xlink="http://www.w3.org/1999/xlink" width="50px" height="50px" viewBox="0 0 50 50" version="1.1">
<g id="surface1">
<path style=" stroke:none;fill-rule:nonzero;fill:rgb(61.568627%,52.156863%,40.392157%);fill-opacity:1;" d="M 23.535156 0.0585938 C 22.742188 0.164062 21.242188 0.5 20.539062 0.734375 C 19.539062 1.074219 18.046875 1.828125 17.109375 2.460938 C 16.101562 3.144531 14.132812 5.125 13.484375 6.101562 C 12.480469 7.636719 11.738281 9.394531 11.359375 11.164062 C 11.113281 12.296875 11.113281 15.539062 11.359375 16.671875 C 11.796875 18.71875 12.390625 20.019531 14.148438 22.792969 C 14.851562 23.914062 15.421875 24.875 15.410156 24.921875 C 15.390625 24.96875 13.601562 26.007812 11.425781 27.234375 L 7.46875 29.460938 L 3.742188 39.265625 C 1.6875 44.65625 0.0078125 49.171875 0.0078125 49.296875 C 0 49.578125 0.410156 50 0.695312 50 C 0.8125 50 1.203125 49.84375 1.554688 49.640625 C 3.007812 48.835938 12.273438 43.613281 12.558594 43.445312 L 12.859375 43.261719 L 18.828125 46.632812 C 22.117188 48.484375 24.890625 50 25 50 C 25.109375 50 27.859375 48.496094 31.125 46.660156 C 34.375 44.824219 37.089844 43.328125 37.148438 43.328125 C 37.207031 43.328125 39.890625 44.8125 43.117188 46.640625 C 46.335938 48.457031 49.09375 49.960938 49.238281 49.980469 C 49.5625 50.03125 50 49.628906 49.992188 49.296875 C 49.992188 49.171875 48.3125 44.65625 46.257812 39.265625 L 42.53125 29.460938 L 38.574219 27.226562 C 36.398438 26.007812 34.609375 24.960938 34.589844 24.921875 C 34.578125 24.875 35.148438 23.914062 35.851562 22.792969 C 37.609375 20.019531 38.203125 18.71875 38.640625 16.671875 C 38.886719 15.539062 38.886719 12.296875 38.640625 11.164062 C 38.273438 9.421875 37.5 7.609375 36.515625 6.101562 C 35.800781 5.039062 33.875 3.125 32.765625 2.382812 C 31.210938 1.347656 29.550781 0.65625 27.78125 0.28125 C 26.921875 0.0976562 24.304688 -0.0390625 23.535156 0.0585938 Z M 27.636719 1.75 C 31.960938 2.734375 35.410156 5.839844 36.804688 10.019531 C 37.226562 11.257812 37.402344 12.421875 37.402344 13.914062 C 37.402344 15.957031 37.03125 17.636719 36.191406 19.335938 C 35.742188 20.253906 25.898438 35.929688 25.507812 36.359375 C 25.234375 36.640625 24.863281 36.699219 24.601562 36.492188 C 24.382812 36.328125 14.304688 20.34375 13.847656 19.433594 C 13.015625 17.804688 12.597656 15.945312 12.597656 13.914062 C 12.597656 11.320312 13.273438 9.09375 14.71875 6.90625 C 15.382812 5.898438 17.050781 4.257812 18.144531 3.546875 C 19.648438 2.558594 21.621094 1.804688 23.367188 1.5625 C 24.316406 1.425781 26.679688 1.53125 27.636719 1.75 Z M 14.84375 29.589844 C 14.523438 31.101562 14.257812 32.414062 14.257812 32.492188 C 14.257812 32.714844 14.71875 33.105469 14.980469 33.105469 C 15.117188 33.105469 15.332031 33.007812 15.46875 32.882812 C 15.671875 32.695312 15.78125 32.324219 16.269531 29.953125 C 16.582031 28.46875 16.867188 27.246094 16.894531 27.246094 C 16.921875 27.246094 18.398438 29.539062 20.164062 32.34375 C 23.015625 36.867188 23.417969 37.460938 23.796875 37.6875 L 24.210938 37.9375 L 24.21875 42.949219 L 24.21875 47.960938 L 23.90625 47.792969 C 23.601562 47.636719 13.742188 42.089844 13.710938 42.050781 C 13.703125 42.050781 14.023438 40.5 14.421875 38.625 C 15.078125 35.546875 15.148438 35.175781 15.019531 34.960938 C 14.824219 34.609375 14.492188 34.472656 14.148438 34.589844 C 13.992188 34.648438 13.828125 34.765625 13.78125 34.851562 C 13.730469 34.941406 13.378906 36.503906 12.988281 38.328125 C 12.609375 40.15625 12.273438 41.71875 12.246094 41.804688 C 12.207031 41.953125 2.273438 47.625 2.207031 47.546875 C 2.1875 47.53125 3.632812 43.679688 5.410156 39.003906 L 8.640625 30.488281 L 12.011719 28.585938 C 13.867188 27.539062 15.390625 26.71875 15.410156 26.757812 C 15.421875 26.789062 15.164062 28.066406 14.84375 29.589844 Z M 38.183594 28.703125 L 41.359375 30.488281 L 44.589844 38.992188 C 46.367188 43.679688 47.8125 47.53125 47.792969 47.539062 C 47.78125 47.558594 45.527344 46.308594 42.78125 44.765625 C 39.101562 42.695312 37.773438 41.90625 37.742188 41.757812 C 37.578125 41.085938 34.570312 26.828125 34.570312 26.738281 C 34.570312 26.679688 34.65625 26.6875 34.796875 26.777344 C 34.914062 26.855469 36.4375 27.714844 38.183594 28.703125 Z M 34.707031 34.539062 C 35.554688 38.5625 36.269531 41.894531 36.296875 41.945312 C 36.320312 42.023438 26.367188 47.734375 25.859375 47.929688 C 25.820312 47.949219 25.78125 45.710938 25.78125 42.949219 L 25.789062 37.9375 L 26.203125 37.6875 C 26.582031 37.460938 26.984375 36.867188 29.835938 32.34375 C 31.601562 29.539062 33.066406 27.246094 33.105469 27.246094 C 33.132812 27.246094 33.859375 30.527344 34.707031 34.539062 Z M 34.707031 34.539062 "/>
<path style=" stroke:none;fill-rule:nonzero;fill:rgb(61.568627%,52.156863%,40.392157%);fill-opacity:1;" d="M 23.710938 5.957031 C 22.351562 6.203125 21.035156 6.796875 19.960938 7.65625 C 18.507812 8.820312 17.421875 10.59375 17.101562 12.34375 C 16.960938 13.09375 16.960938 14.734375 17.101562 15.488281 C 17.324219 16.710938 18.015625 18.117188 18.925781 19.210938 C 19.804688 20.253906 21.554688 21.328125 23.046875 21.738281 C 24.023438 22.011719 26.074219 21.984375 27.078125 21.699219 C 30.671875 20.671875 33.007812 17.609375 33.007812 13.914062 C 33.007812 10.242188 30.664062 7.15625 27.128906 6.152344 C 26.328125 5.917969 24.472656 5.8125 23.710938 5.957031 Z M 26.90625 7.617188 C 28.574219 8.132812 30.109375 9.421875 30.839844 10.9375 C 31.386719 12.039062 31.542969 12.726562 31.542969 13.914062 C 31.542969 15.109375 31.386719 15.789062 30.839844 16.894531 C 30.527344 17.546875 30.273438 17.890625 29.648438 18.515625 C 28.261719 19.890625 26.914062 20.460938 25 20.460938 C 23.085938 20.460938 21.738281 19.890625 20.351562 18.515625 C 19.054688 17.21875 18.457031 15.773438 18.457031 13.914062 C 18.457031 12.734375 18.625 12.039062 19.148438 10.957031 C 19.8125 9.589844 21.191406 8.320312 22.539062 7.8125 C 23.953125 7.273438 25.566406 7.195312 26.90625 7.617188 Z M 26.90625 7.617188 "/>
<path style=" stroke:none;fill-rule:nonzero;fill:rgb(61.568627%,52.156863%,40.392157%);fill-opacity:1;" d="M 23.808594 8.945312 C 22.109375 9.355469 20.625 10.734375 20.117188 12.382812 C 19.851562 13.234375 19.851562 14.601562 20.117188 15.449219 C 20.632812 17.117188 22.109375 18.484375 23.847656 18.898438 C 26.40625 19.5 29.109375 17.960938 29.882812 15.449219 C 30.148438 14.601562 30.148438 13.234375 29.882812 12.382812 C 29.109375 9.863281 26.375 8.320312 23.808594 8.945312 Z M 26.085938 10.449219 C 27.648438 10.9375 28.613281 12.265625 28.613281 13.914062 C 28.613281 15.566406 27.648438 16.894531 26.085938 17.382812 C 25.304688 17.625 24.695312 17.625 23.914062 17.382812 C 22.792969 17.03125 21.992188 16.269531 21.570312 15.148438 C 21.28125 14.367188 21.335938 13.054688 21.710938 12.34375 C 22.195312 11.375 22.921875 10.761719 23.914062 10.4375 C 24.640625 10.203125 25.332031 10.214844 26.085938 10.449219 Z M 26.085938 10.449219 "/>
</g>
</svg>
