<?xml version="1.0" encoding="UTF-8"?>
<svg xmlns="http://www.w3.org/2000/svg" xmlns:xlink="http://www.w3.org/1999/xlink" width="50px" height="50px" viewBox="0 0 50 50" version="1.1">
<g id="surface1">
<path style=" stroke:none;fill-rule:nonzero;fill:rgb(61.568627%,52.156863%,40.392157%);fill-opacity:1;" d="M 7.960938 0.148438 C 7.128906 0.332031 6.328125 0.644531 5.789062 1.007812 C 5.382812 1.28125 5.320312 1.367188 5.292969 1.6875 C 5.226562 2.5 5.820312 2.65625 6.835938 2.101562 C 9.453125 0.703125 12.726562 1.765625 14.015625 4.445312 C 15.175781 6.867188 14.367188 9.648438 12.070312 11.152344 C 10.085938 12.441406 7.324219 12.128906 5.605469 10.410156 C 4.589844 9.394531 4.09375 8.164062 4.09375 6.671875 C 4.09375 5.945312 4.140625 5.632812 4.34375 5.058594 C 4.796875 3.820312 4.765625 3.535156 4.210938 3.339844 C 3.796875 3.195312 3.507812 3.378906 3.203125 4.003906 C 2.792969 4.835938 2.625 5.59375 2.625 6.738281 C 2.625 7.949219 2.851562 8.859375 3.398438 9.914062 C 3.886719 10.851562 5.175781 12.128906 6.101562 12.617188 C 8.046875 13.632812 10.359375 13.671875 12.257812 12.742188 C 14.992188 11.386719 16.492188 8.3125 15.867188 5.320312 C 15.789062 4.941406 15.527344 4.238281 15.292969 3.757812 C 13.945312 1.023438 10.859375 -0.5 7.960938 0.148438 Z M 7.960938 0.148438 "/>
<path style=" stroke:none;fill-rule:nonzero;fill:rgb(61.568627%,52.156863%,40.392157%);fill-opacity:1;" d="M 8.90625 2.859375 C 8.78125 2.988281 8.691406 3.210938 8.691406 3.390625 C 8.691406 3.640625 8.640625 3.691406 8.300781 3.796875 C 7.101562 4.160156 6.5625 5.617188 7.265625 6.621094 C 7.664062 7.207031 8.027344 7.363281 9.070312 7.421875 C 9.875 7.460938 10 7.5 10.125 7.6875 C 10.253906 7.871094 10.242188 7.921875 10.070312 8.09375 C 9.882812 8.28125 9.746094 8.300781 8.703125 8.300781 C 7.558594 8.300781 7.53125 8.3125 7.335938 8.554688 C 7.070312 8.886719 7.078125 9.109375 7.351562 9.433594 C 7.539062 9.648438 7.6875 9.707031 8.132812 9.746094 C 8.640625 9.785156 8.691406 9.804688 8.691406 10.03125 C 8.691406 10.605469 9.179688 10.945312 9.695312 10.734375 C 9.992188 10.605469 10.15625 10.3125 10.15625 9.914062 C 10.15625 9.757812 10.226562 9.667969 10.398438 9.628906 C 10.722656 9.550781 11.296875 9.03125 11.492188 8.652344 C 11.738281 8.183594 11.699219 7.421875 11.398438 6.914062 C 11.023438 6.289062 10.507812 6.035156 9.445312 5.96875 C 8.75 5.917969 8.546875 5.867188 8.457031 5.734375 C 8.378906 5.617188 8.378906 5.515625 8.457031 5.390625 C 8.546875 5.253906 8.757812 5.214844 9.796875 5.175781 C 11.210938 5.117188 11.425781 5.019531 11.425781 4.453125 C 11.425781 4.015625 11.0625 3.710938 10.539062 3.710938 C 10.175781 3.710938 10.15625 3.691406 10.15625 3.417969 C 10.15625 2.753906 9.335938 2.402344 8.90625 2.859375 Z M 8.90625 2.859375 "/>
<path style=" stroke:none;fill-rule:nonzero;fill:rgb(61.568627%,52.156863%,40.392157%);fill-opacity:1;" d="M 21.464844 7.03125 C 18.992188 7.480469 17.011719 9.160156 16.171875 11.515625 C 15.890625 12.304688 15.867188 12.429688 15.867188 13.78125 L 15.867188 15.195312 L 14.863281 15.671875 C 13.105469 16.503906 11.320312 17.820312 10.125 19.171875 C 9.226562 20.1875 9.082031 20.410156 9.082031 20.703125 C 9.082031 21.046875 9.453125 21.386719 9.835938 21.386719 C 10.097656 21.386719 10.242188 21.269531 10.878906 20.527344 C 11.71875 19.539062 12.78125 18.613281 13.914062 17.871094 C 14.679688 17.382812 16.191406 16.601562 16.398438 16.601562 C 16.453125 16.601562 16.582031 16.765625 16.6875 16.972656 C 16.796875 17.179688 17.070312 17.585938 17.296875 17.871094 C 17.585938 18.242188 17.675781 18.40625 17.578125 18.4375 C 17.3125 18.523438 16.992188 18.945312 16.992188 19.1875 C 16.992188 19.335938 17.101562 19.550781 17.246094 19.695312 C 17.441406 19.890625 17.558594 19.929688 17.804688 19.890625 C 17.976562 19.851562 18.46875 19.765625 18.898438 19.6875 C 19.511719 19.570312 20.605469 19.539062 24.140625 19.53125 L 28.601562 19.53125 L 28.867188 19.304688 C 29.0625 19.140625 29.132812 18.984375 29.132812 18.75 C 29.132812 18.28125 28.828125 18.066406 28.15625 18.066406 L 27.617188 18.066406 L 27.96875 17.597656 C 28.320312 17.109375 28.90625 15.96875 28.90625 15.742188 C 28.90625 15.65625 29.160156 15.625 29.863281 15.625 C 30.734375 15.625 30.839844 15.605469 31.035156 15.398438 C 31.140625 15.28125 31.269531 15.046875 31.308594 14.890625 C 31.515625 14.0625 32.207031 12.929688 32.929688 12.234375 C 33.769531 11.4375 34.882812 10.867188 36.164062 10.59375 L 36.425781 10.546875 L 36.425781 13.496094 C 36.425781 15.65625 36.464844 16.523438 36.554688 16.6875 C 36.609375 16.828125 37.03125 17.140625 37.480469 17.390625 C 39.746094 18.703125 41.679688 20.695312 42.851562 22.9375 C 43.457031 24.101562 43.703125 24.707031 44.003906 25.828125 C 44.328125 27.070312 44.296875 27.050781 46.203125 27.050781 C 47.625 27.050781 47.773438 27.070312 47.949219 27.246094 C 48.132812 27.429688 48.144531 27.570312 48.144531 30.398438 C 48.144531 32.804688 48.117188 33.398438 48.007812 33.554688 C 47.882812 33.71875 47.703125 33.742188 46.023438 33.789062 C 43.769531 33.847656 43.808594 33.828125 43.085938 35.273438 C 42.546875 36.347656 42.46875 36.789062 42.753906 37.039062 C 43 37.257812 43.585938 37.257812 43.769531 37.03125 C 43.859375 36.945312 44.101562 36.503906 44.328125 36.054688 L 44.726562 35.253906 L 46.359375 35.253906 C 48.203125 35.253906 48.574219 35.15625 49.109375 34.511719 C 49.578125 33.9375 49.609375 33.664062 49.609375 30.398438 C 49.609375 27.226562 49.578125 26.972656 49.160156 26.398438 C 48.679688 25.761719 48.339844 25.644531 46.835938 25.585938 L 45.488281 25.539062 L 45.078125 24.367188 C 43.828125 20.800781 41.621094 18.164062 38.164062 16.074219 L 37.890625 15.917969 L 37.890625 13.046875 C 37.890625 10.242188 37.890625 10.175781 37.675781 9.863281 C 37.546875 9.6875 37.324219 9.445312 37.179688 9.335938 C 36.609375 8.914062 35.097656 9.1875 33.546875 9.992188 C 32.9375 10.304688 32.546875 10.605469 31.835938 11.328125 C 31.046875 12.109375 30.828125 12.402344 30.421875 13.203125 L 29.941406 14.160156 L 29.199219 14.160156 L 29.199219 13.445312 C 29.1875 10.632812 27.03125 7.898438 24.226562 7.179688 C 23.476562 6.984375 22.109375 6.914062 21.464844 7.03125 Z M 23.585938 8.546875 C 24.601562 8.757812 25.410156 9.199219 26.171875 9.953125 C 28.28125 12.023438 28.28125 15.320312 26.164062 17.402344 L 25.488281 18.066406 L 19.523438 18.066406 L 18.867188 17.402344 C 17.820312 16.359375 17.285156 15.109375 17.285156 13.703125 C 17.285156 11.230469 19.015625 9.0625 21.414062 8.546875 C 22.21875 8.367188 22.753906 8.367188 23.585938 8.546875 Z M 23.585938 8.546875 "/>
<path style=" stroke:none;fill-rule:nonzero;fill:rgb(61.568627%,52.156863%,40.392157%);fill-opacity:1;" d="M 22.1875 9.726562 C 22.0625 9.8125 21.953125 10.019531 21.914062 10.265625 C 21.855469 10.605469 21.816406 10.65625 21.445312 10.761719 C 20.195312 11.140625 19.757812 12.734375 20.625 13.730469 C 21.074219 14.238281 21.367188 14.355469 22.234375 14.355469 C 23.273438 14.355469 23.710938 14.65625 23.28125 15.078125 C 23.164062 15.203125 22.890625 15.234375 21.972656 15.234375 C 20.632812 15.234375 20.382812 15.34375 20.382812 15.917969 C 20.382812 16.398438 20.773438 16.699219 21.375 16.699219 L 21.84375 16.699219 L 21.914062 17.078125 C 22.011719 17.734375 22.578125 17.96875 23.085938 17.570312 C 23.28125 17.414062 23.339844 17.285156 23.339844 16.992188 C 23.339844 16.648438 23.367188 16.609375 23.640625 16.554688 C 24.070312 16.453125 24.679688 15.820312 24.804688 15.3125 C 25.03125 14.511719 24.707031 13.691406 24.003906 13.25 C 23.640625 13.027344 23.417969 12.96875 22.695312 12.921875 C 22.21875 12.890625 21.765625 12.820312 21.710938 12.765625 C 21.542969 12.636719 21.554688 12.453125 21.738281 12.265625 C 21.855469 12.140625 22.128906 12.109375 23.054688 12.109375 C 24.171875 12.109375 24.238281 12.101562 24.460938 11.867188 C 24.734375 11.601562 24.757812 11.453125 24.601562 11.101562 C 24.460938 10.8125 24.132812 10.644531 23.679688 10.644531 C 23.359375 10.644531 23.339844 10.625 23.339844 10.3125 C 23.339844 9.71875 22.675781 9.382812 22.1875 9.726562 Z M 22.1875 9.726562 "/>
<path style=" stroke:none;fill-rule:nonzero;fill:rgb(61.568627%,52.156863%,40.392157%);fill-opacity:1;" d="M 38.78125 22.617188 C 38.601562 22.84375 38.574219 23.007812 38.574219 23.914062 C 38.585938 25.019531 38.640625 25.214844 39.070312 25.382812 C 39.367188 25.488281 39.882812 25.304688 39.980469 25.046875 C 40.007812 24.960938 40.039062 24.414062 40.039062 23.835938 C 40.039062 22.871094 40.019531 22.773438 39.8125 22.578125 C 39.492188 22.273438 39.03125 22.296875 38.78125 22.617188 Z M 38.78125 22.617188 "/>
<path style=" stroke:none;fill-rule:nonzero;fill:rgb(61.568627%,52.156863%,40.392157%);fill-opacity:1;" d="M 7.9375 22.65625 C 7.625 22.78125 7.453125 23.105469 7.023438 24.316406 C 6.648438 25.371094 6.328125 26.757812 6.203125 27.84375 L 6.140625 28.390625 L 5.3125 28.457031 C 2.976562 28.652344 1.28125 29.578125 0.617188 31.015625 C -0.046875 32.480469 0.421875 34.09375 1.699219 34.71875 C 3.117188 35.410156 4.734375 34.5625 4.863281 33.054688 C 4.902344 32.597656 4.875 32.5 4.65625 32.285156 C 4.511719 32.140625 4.289062 32.03125 4.148438 32.03125 C 3.796875 32.03125 3.417969 32.441406 3.417969 32.8125 C 3.417969 33.496094 2.609375 33.742188 2.089844 33.195312 C 1.84375 32.9375 1.804688 32.820312 1.804688 32.335938 C 1.804688 31.875 1.855469 31.699219 2.089844 31.367188 C 2.625 30.59375 3.828125 30.058594 5.34375 29.929688 L 6.125 29.863281 L 6.191406 30.625 C 6.359375 32.492188 6.835938 34.179688 7.714844 35.984375 C 8.46875 37.539062 9.289062 38.679688 10.625 40.03125 L 11.726562 41.132812 L 11.828125 42.519531 C 11.945312 44.25 12.1875 46.398438 12.324219 46.972656 C 12.65625 48.339844 13.78125 49.472656 15.175781 49.851562 C 17.1875 50.398438 19.335938 49.179688 19.921875 47.167969 C 20.019531 46.816406 20.15625 46.0625 20.226562 45.488281 L 20.34375 44.433594 L 25.789062 44.433594 C 30.1875 44.433594 31.25 44.460938 31.25 44.5625 C 31.25 44.628906 31.320312 45.214844 31.398438 45.851562 C 31.59375 47.335938 31.960938 48.171875 32.753906 48.90625 C 34.773438 50.742188 37.832031 50.15625 38.976562 47.714844 C 39.296875 47.023438 39.550781 45.429688 39.734375 42.820312 L 39.835938 41.453125 L 40.203125 41.164062 C 40.890625 40.632812 42.011719 39.5 42.109375 39.265625 C 42.273438 38.820312 41.867188 38.28125 41.347656 38.28125 C 41.269531 38.28125 40.859375 38.601562 40.449219 38.992188 C 40.039062 39.382812 39.421875 39.914062 39.09375 40.164062 C 38.75 40.429688 38.457031 40.734375 38.429688 40.851562 C 38.40625 40.96875 38.339844 41.71875 38.28125 42.53125 C 38.164062 44.238281 37.921875 46.289062 37.792969 46.765625 C 37.5 47.84375 36.328125 48.625 35.203125 48.507812 C 34.199219 48.398438 33.328125 47.6875 33.054688 46.726562 C 32.890625 46.132812 32.636719 43.992188 32.53125 42.15625 C 32.460938 40.945312 32.421875 40.789062 32.226562 40.578125 C 31.945312 40.273438 31.523438 40.253906 31.25 40.527344 C 31.023438 40.75 31.035156 40.734375 31.054688 42.023438 L 31.074219 42.976562 L 25.265625 42.96875 C 21.191406 42.960938 19.382812 42.988281 19.25 43.066406 C 19.003906 43.195312 19.003906 43.195312 18.757812 45.175781 C 18.554688 46.882812 18.417969 47.285156 17.851562 47.8125 C 17.3125 48.328125 16.921875 48.476562 16.164062 48.476562 C 15.390625 48.476562 14.902344 48.28125 14.375 47.742188 C 13.898438 47.257812 13.75 46.828125 13.5625 45.371094 C 13.164062 42.234375 13.09375 39.0625 13.390625 36.984375 C 13.507812 36.140625 13.507812 36.125 13.28125 35.890625 C 12.96875 35.554688 12.480469 35.554688 12.226562 35.890625 C 12.03125 36.132812 11.914062 36.816406 11.757812 38.429688 L 11.699219 39.109375 L 11.171875 38.523438 C 9.882812 37.089844 8.898438 35.410156 8.3125 33.640625 C 7.871094 32.324219 7.695312 31.335938 7.648438 29.882812 C 7.570312 27.871094 7.851562 26.171875 8.554688 24.40625 C 8.742188 23.9375 8.886719 23.429688 8.886719 23.273438 C 8.886719 22.8125 8.378906 22.480469 7.9375 22.65625 Z M 7.9375 22.65625 "/>
</g>
</svg>
